solid ascii
  facet normal 0.000000e+000 7.071068e-001 -7.071068e-001
    outer loop
      vertex   4.746937e+000 4.875000e+001 1.300000e+001
      vertex   7.000000e+000 4.875000e+001 1.300000e+001
      vertex   4.746937e+000 4.775000e+001 1.200000e+001
    endloop
  endfacet
  facet normal 0.000000e+000 3.759214e-001 -3.759214e-001
    outer loop
      vertex   4.746937e+000 4.775000e+001 1.200000e+001
      vertex   7.000000e+000 4.875000e+001 1.300000e+001
      vertex   7.000000e+000 4.775000e+001 1.200000e+001
    endloop
  endfacet
  facet normal 0.000000e+000 1.000000e+000 -0.000000e+000
    outer loop
      vertex   7.000000e+000 4.875000e+001 1.300000e+001
      vertex   4.746937e+000 4.875000e+001 1.300000e+001
      vertex   7.000000e+000 4.875000e+001 1.775000e+001
    endloop
  endfacet
  facet normal 0.000000e+000 9.035123e-001 0.000000e+000
    outer loop
      vertex   7.000000e+000 4.875000e+001 1.775000e+001
      vertex   4.746937e+000 4.875000e+001 1.300000e+001
      vertex   4.746937e+000 4.875000e+001 1.775000e+001
    endloop
  endfacet
  facet normal -3.701166e-002 -0.000000e+000 0.000000e+000
    outer loop
      vertex   4.746937e+000 5.800000e+001 1.800000e+001
      vertex   4.746937e+000 5.125000e+001 1.775000e+001
      vertex   4.746937e+000 4.200000e+001 1.800000e+001
    endloop
  endfacet
  facet normal -9.999500e-003 0.000000e+000 0.000000e+000
    outer loop
      vertex   4.746937e+000 4.200000e+001 1.800000e+001
      vertex   4.746937e+000 5.125000e+001 1.775000e+001
      vertex   4.746937e+000 4.875000e+001 1.775000e+001
    endloop
  endfacet
  facet normal -5.650787e-001 0.000000e+000 0.000000e+000
    outer loop
      vertex   4.746937e+000 4.200000e+001 1.800000e+001
      vertex   4.746937e+000 4.875000e+001 1.775000e+001
      vertex   4.746937e+000 4.875000e+001 1.300000e+001
    endloop
  endfacet
  facet normal -1.520572e-001 0.000000e+000 0.000000e+000
    outer loop
      vertex   4.746937e+000 5.800000e+001 3.000000e+000
      vertex   4.746937e+000 5.700000e+001 9.500000e+000
      vertex   4.746937e+000 5.800000e+001 1.800000e+001
    endloop
  endfacet
  facet normal -4.802146e-002 0.000000e+000 0.000000e+000
    outer loop
      vertex   4.746937e+000 5.800000e+001 1.800000e+001
      vertex   4.746937e+000 5.700000e+001 9.500000e+000
      vertex   4.746937e+000 5.700000e+001 1.200000e+001
    endloop
  endfacet
  facet normal -6.947691e-001 0.000000e+000 0.000000e+000
    outer loop
      vertex   4.746937e+000 5.800000e+001 1.800000e+001
      vertex   4.746937e+000 5.700000e+001 1.200000e+001
      vertex   4.746937e+000 5.125000e+001 1.300000e+001
    endloop
  endfacet
  facet normal -5.754934e-001 0.000000e+000 0.000000e+000
    outer loop
      vertex   4.746937e+000 5.125000e+001 1.300000e+001
      vertex   4.746937e+000 5.700000e+001 1.200000e+001
      vertex   4.746937e+000 5.225000e+001 1.200000e+001
    endloop
  endfacet
  facet normal -8.081587e-002 0.000000e+000 0.000000e+000
    outer loop
      vertex   4.746937e+000 4.200000e+001 3.000000e+000
      vertex   4.746937e+000 5.125000e+001 3.750000e+000
      vertex   4.746937e+000 5.800000e+001 3.000000e+000
    endloop
  endfacet
  facet normal -5.421991e-001 0.000000e+000 0.000000e+000
    outer loop
      vertex   4.746937e+000 5.800000e+001 3.000000e+000
      vertex   4.746937e+000 5.125000e+001 3.750000e+000
      vertex   4.746937e+000 5.125000e+001 8.500000e+000
    endloop
  endfacet
  facet normal -6.701699e-001 0.000000e+000 0.000000e+000
    outer loop
      vertex   4.746937e+000 5.800000e+001 3.000000e+000
      vertex   4.746937e+000 5.125000e+001 8.500000e+000
      vertex   4.746937e+000 5.700000e+001 9.500000e+000
    endloop
  endfacet
  facet normal -1.713412e-001 -0.000000e+000 0.000000e+000
    outer loop
      vertex   4.746937e+000 5.700000e+001 9.500000e+000
      vertex   4.746937e+000 5.125000e+001 8.500000e+000
      vertex   4.746937e+000 5.225000e+001 9.500000e+000
    endloop
  endfacet
  facet normal -1.168412e-001 0.000000e+000 0.000000e+000
    outer loop
      vertex   4.746937e+000 4.200000e+001 1.800000e+001
      vertex   4.746937e+000 4.300000e+001 9.500000e+000
      vertex   4.746937e+000 4.200000e+001 3.000000e+000
    endloop
  endfacet
  facet normal -6.701699e-001 0.000000e+000 0.000000e+000
    outer loop
      vertex   4.746937e+000 4.200000e+001 3.000000e+000
      vertex   4.746937e+000 4.300000e+001 9.500000e+000
      vertex   4.746937e+000 4.875000e+001 8.500000e+000
    endloop
  endfacet
  facet normal -5.421991e-001 0.000000e+000 0.000000e+000
    outer loop
      vertex   4.746937e+000 4.200000e+001 3.000000e+000
      vertex   4.746937e+000 4.875000e+001 8.500000e+000
      vertex   4.746937e+000 4.875000e+001 3.750000e+000
    endloop
  endfacet
  facet normal -7.071068e-001 0.000000e+000 0.000000e+000
    outer loop
      vertex   4.746937e+000 4.775000e+001 1.200000e+001
      vertex   4.746937e+000 4.300000e+001 1.200000e+001
      vertex   4.746937e+000 4.875000e+001 1.300000e+001
    endloop
  endfacet
  facet normal -7.241076e-001 -0.000000e+000 0.000000e+000
    outer loop
      vertex   4.746937e+000 4.875000e+001 1.300000e+001
      vertex   4.746937e+000 4.300000e+001 1.200000e+001
      vertex   4.746937e+000 4.200000e+001 1.800000e+001
    endloop
  endfacet
  facet normal -1.643990e-001 -0.000000e+000 -0.000000e+000
    outer loop
      vertex   4.746937e+000 4.300000e+001 1.200000e+001
      vertex   4.746937e+000 4.300000e+001 9.500000e+000
      vertex   4.746937e+000 4.200000e+001 1.800000e+001
    endloop
  endfacet
  facet normal -1.713412e-001 0.000000e+000 0.000000e+000
    outer loop
      vertex   4.746937e+000 4.300000e+001 9.500000e+000
      vertex   4.746937e+000 4.775000e+001 9.500000e+000
      vertex   4.746937e+000 4.875000e+001 8.500000e+000
    endloop
  endfacet
  facet normal -1.104315e-001 0.000000e+000 -0.000000e+000
    outer loop
      vertex   4.746937e+000 4.875000e+001 3.750000e+000
      vertex   4.746937e+000 5.125000e+001 3.750000e+000
      vertex   4.746937e+000 4.200000e+001 3.000000e+000
    endloop
  endfacet
  facet normal -8.035572e-001 0.000000e+000 0.000000e+000
    outer loop
      vertex   4.746937e+000 5.125000e+001 1.300000e+001
      vertex   4.746937e+000 5.125000e+001 1.775000e+001
      vertex   4.746937e+000 5.800000e+001 1.800000e+001
    endloop
  endfacet
  facet normal -0.000000e+000 7.071068e-001 7.071068e-001
    outer loop
      vertex   4.746937e+000 4.775000e+001 9.500000e+000
      vertex   7.000000e+000 4.775000e+001 9.500000e+000
      vertex   4.746937e+000 4.875000e+001 8.500000e+000
    endloop
  endfacet
  facet normal -0.000000e+000 3.759214e-001 3.759214e-001
    outer loop
      vertex   4.746937e+000 4.875000e+001 8.500000e+000
      vertex   7.000000e+000 4.775000e+001 9.500000e+000
      vertex   7.000000e+000 4.875000e+001 8.500000e+000
    endloop
  endfacet
  facet normal 0.000000e+000 0.000000e+000 1.000000e+000
    outer loop
      vertex   7.000000e+000 4.775000e+001 9.500000e+000
      vertex   4.746937e+000 4.775000e+001 9.500000e+000
      vertex   7.000000e+000 4.300000e+001 9.500000e+000
    endloop
  endfacet
  facet normal 0.000000e+000 0.000000e+000 9.035123e-001
    outer loop
      vertex   7.000000e+000 4.300000e+001 9.500000e+000
      vertex   4.746937e+000 4.775000e+001 9.500000e+000
      vertex   4.746937e+000 4.300000e+001 9.500000e+000
    endloop
  endfacet
  facet normal 0.000000e+000 -7.071068e-001 7.071068e-001
    outer loop
      vertex   4.746937e+000 5.125000e+001 8.500000e+000
      vertex   7.000000e+000 5.125000e+001 8.500000e+000
      vertex   4.746937e+000 5.225000e+001 9.500000e+000
    endloop
  endfacet
  facet normal 0.000000e+000 -3.759214e-001 3.759214e-001
    outer loop
      vertex   4.746937e+000 5.225000e+001 9.500000e+000
      vertex   7.000000e+000 5.125000e+001 8.500000e+000
      vertex   7.000000e+000 5.225000e+001 9.500000e+000
    endloop
  endfacet
  facet normal -0.000000e+000 -1.000000e+000 -0.000000e+000
    outer loop
      vertex   7.000000e+000 5.125000e+001 8.500000e+000
      vertex   4.746937e+000 5.125000e+001 8.500000e+000
      vertex   7.000000e+000 5.125000e+001 3.750000e+000
    endloop
  endfacet
  facet normal 0.000000e+000 -9.035123e-001 0.000000e+000
    outer loop
      vertex   7.000000e+000 5.125000e+001 3.750000e+000
      vertex   4.746937e+000 5.125000e+001 8.500000e+000
      vertex   4.746937e+000 5.125000e+001 3.750000e+000
    endloop
  endfacet
  facet normal 0.000000e+000 -7.071068e-001 -7.071068e-001
    outer loop
      vertex   4.746937e+000 5.225000e+001 1.200000e+001
      vertex   7.000000e+000 5.225000e+001 1.200000e+001
      vertex   4.746937e+000 5.125000e+001 1.300000e+001
    endloop
  endfacet
  facet normal 0.000000e+000 -3.759214e-001 -3.759214e-001
    outer loop
      vertex   4.746937e+000 5.125000e+001 1.300000e+001
      vertex   7.000000e+000 5.225000e+001 1.200000e+001
      vertex   7.000000e+000 5.125000e+001 1.300000e+001
    endloop
  endfacet
  facet normal 0.000000e+000 0.000000e+000 -1.000000e+000
    outer loop
      vertex   7.000000e+000 5.225000e+001 1.200000e+001
      vertex   4.746937e+000 5.225000e+001 1.200000e+001
      vertex   7.000000e+000 5.700000e+001 1.200000e+001
    endloop
  endfacet
  facet normal -0.000000e+000 0.000000e+000 -9.035123e-001
    outer loop
      vertex   7.000000e+000 5.700000e+001 1.200000e+001
      vertex   4.746937e+000 5.225000e+001 1.200000e+001
      vertex   4.746937e+000 5.700000e+001 1.200000e+001
    endloop
  endfacet
  facet normal -0.000000e+000 6.037870e-002 9.981756e-001
    outer loop
      vertex   7.000000e+000 4.981919e+001 9.260937e+000
      vertex   9.000000e+000 4.981919e+001 9.260937e+000
      vertex   7.000000e+000 5.000000e+001 9.250000e+000
    endloop
  endfacet
  facet normal -0.000000e+000 5.446078e-003 9.003410e-002
    outer loop
      vertex   7.000000e+000 5.000000e+001 9.250000e+000
      vertex   9.000000e+000 4.981919e+001 9.260937e+000
      vertex   9.000000e+000 5.000000e+001 9.250000e+000
    endloop
  endfacet
  facet normal 0.000000e+000 -6.037870e-002 9.981756e-001
    outer loop
      vertex   7.000000e+000 5.000000e+001 9.250000e+000
      vertex   9.000000e+000 5.000000e+001 9.250000e+000
      vertex   7.000000e+000 5.018081e+001 9.260937e+000
    endloop
  endfacet
  facet normal 0.000000e+000 -5.446078e-003 9.003410e-002
    outer loop
      vertex   7.000000e+000 5.018081e+001 9.260937e+000
      vertex   9.000000e+000 5.000000e+001 9.250000e+000
      vertex   9.000000e+000 5.018081e+001 9.260937e+000
    endloop
  endfacet
  facet normal 0.000000e+000 -1.802562e-001 9.836197e-001
    outer loop
      vertex   7.000000e+000 5.018081e+001 9.260937e+000
      vertex   9.000000e+000 5.018081e+001 9.260937e+000
      vertex   7.000000e+000 5.035897e+001 9.293588e+000
    endloop
  endfacet
  facet normal 0.000000e+000 -1.625893e-002 8.872150e-002
    outer loop
      vertex   7.000000e+000 5.035897e+001 9.293588e+000
      vertex   9.000000e+000 5.018081e+001 9.260937e+000
      vertex   9.000000e+000 5.035897e+001 9.293588e+000
    endloop
  endfacet
  facet normal 0.000000e+000 -2.975062e-001 9.547199e-001
    outer loop
      vertex   7.000000e+000 5.035897e+001 9.293588e+000
      vertex   9.000000e+000 5.035897e+001 9.293588e+000
      vertex   7.000000e+000 5.053191e+001 9.347476e+000
    endloop
  endfacet
  facet normal 0.000000e+000 -2.683433e-002 8.611339e-002
    outer loop
      vertex   7.000000e+000 5.053191e+001 9.347476e+000
      vertex   9.000000e+000 5.035897e+001 9.293588e+000
      vertex   9.000000e+000 5.053191e+001 9.347476e+000
    endloop
  endfacet
  facet normal 0.000000e+000 -4.104050e-001 9.119034e-001
    outer loop
      vertex   7.000000e+000 5.053191e+001 9.347476e+000
      vertex   9.000000e+000 5.053191e+001 9.347476e+000
      vertex   7.000000e+000 5.069709e+001 9.421816e+000
    endloop
  endfacet
  facet normal 0.000000e+000 -3.701842e-002 8.225344e-002
    outer loop
      vertex   7.000000e+000 5.069709e+001 9.421816e+000
      vertex   9.000000e+000 5.053191e+001 9.347476e+000
      vertex   9.000000e+000 5.069709e+001 9.421816e+000
    endloop
  endfacet
  facet normal 0.000000e+000 -5.173422e-001 8.557786e-001
    outer loop
      vertex   7.000000e+000 5.069709e+001 9.421816e+000
      vertex   9.000000e+000 5.069709e+001 9.421816e+000
      vertex   7.000000e+000 5.085210e+001 9.515524e+000
    endloop
  endfacet
  facet normal 0.000000e+000 -4.666304e-002 7.718919e-002
    outer loop
      vertex   7.000000e+000 5.085210e+001 9.515524e+000
      vertex   9.000000e+000 5.069709e+001 9.421816e+000
      vertex   9.000000e+000 5.085210e+001 9.515524e+000
    endloop
  endfacet
  facet normal 0.000000e+000 -6.167216e-001 7.871814e-001
    outer loop
      vertex   7.000000e+000 5.085210e+001 9.515524e+000
      vertex   9.000000e+000 5.085210e+001 9.515524e+000
      vertex   7.000000e+000 5.099468e+001 9.627234e+000
    endloop
  endfacet
  facet normal 0.000000e+000 -5.562713e-002 7.100227e-002
    outer loop
      vertex   7.000000e+000 5.099468e+001 9.627234e+000
      vertex   9.000000e+000 5.085210e+001 9.515524e+000
      vertex   9.000000e+000 5.099468e+001 9.627234e+000
    endloop
  endfacet
  facet normal 0.000000e+000 -7.071068e-001 7.071068e-001
    outer loop
      vertex   7.000000e+000 5.099468e+001 9.627234e+000
      vertex   9.000000e+000 5.099468e+001 9.627234e+000
      vertex   7.000000e+000 5.112276e+001 9.755316e+000
    endloop
  endfacet
  facet normal 0.000000e+000 -6.378009e-002 6.378009e-002
    outer loop
      vertex   7.000000e+000 5.112276e+001 9.755316e+000
      vertex   9.000000e+000 5.099468e+001 9.627234e+000
      vertex   9.000000e+000 5.112276e+001 9.755316e+000
    endloop
  endfacet
  facet normal 0.000000e+000 -7.871833e-001 6.167190e-001
    outer loop
      vertex   7.000000e+000 5.112276e+001 9.755316e+000
      vertex   9.000000e+000 5.112276e+001 9.755316e+000
      vertex   7.000000e+000 5.123447e+001 9.897902e+000
    endloop
  endfacet
  facet normal 0.000000e+000 -7.100275e-002 5.562712e-002
    outer loop
      vertex   7.000000e+000 5.123447e+001 9.897902e+000
      vertex   9.000000e+000 5.112276e+001 9.755316e+000
      vertex   9.000000e+000 5.123447e+001 9.897902e+000
    endloop
  endfacet
  facet normal 0.000000e+000 -8.557828e-001 5.173352e-001
    outer loop
      vertex   7.000000e+000 5.123447e+001 9.897902e+000
      vertex   9.000000e+000 5.123447e+001 9.897902e+000
      vertex   7.000000e+000 5.132818e+001 1.005292e+001
    endloop
  endfacet
  facet normal 0.000000e+000 -7.719061e-002 4.666303e-002
    outer loop
      vertex   7.000000e+000 5.132818e+001 1.005292e+001
      vertex   9.000000e+000 5.123447e+001 9.897902e+000
      vertex   9.000000e+000 5.132818e+001 1.005292e+001
    endloop
  endfacet
  facet normal 0.000000e+000 -9.118987e-001 4.104152e-001
    outer loop
      vertex   7.000000e+000 5.132818e+001 1.005292e+001
      vertex   9.000000e+000 5.132818e+001 1.005292e+001
      vertex   7.000000e+000 5.140252e+001 1.021809e+001
    endloop
  endfacet
  facet normal 0.000000e+000 -8.225203e-002 3.701890e-002
    outer loop
      vertex   7.000000e+000 5.140252e+001 1.021809e+001
      vertex   9.000000e+000 5.132818e+001 1.005292e+001
      vertex   9.000000e+000 5.140252e+001 1.021809e+001
    endloop
  endfacet
  facet normal 0.000000e+000 -9.547178e-001 2.975129e-001
    outer loop
      vertex   7.000000e+000 5.140252e+001 1.021809e+001
      vertex   9.000000e+000 5.140252e+001 1.021809e+001
      vertex   7.000000e+000 5.145641e+001 1.039103e+001
    endloop
  endfacet
  facet normal 0.000000e+000 -8.611433e-002 2.683528e-002
    outer loop
      vertex   7.000000e+000 5.145641e+001 1.039103e+001
      vertex   9.000000e+000 5.140252e+001 1.021809e+001
      vertex   9.000000e+000 5.145641e+001 1.039103e+001
    endloop
  endfacet
  facet normal 0.000000e+000 -9.836205e-001 1.802521e-001
    outer loop
      vertex   7.000000e+000 5.145641e+001 1.039103e+001
      vertex   9.000000e+000 5.145641e+001 1.039103e+001
      vertex   7.000000e+000 5.148906e+001 1.056919e+001
    endloop
  endfacet
  facet normal 0.000000e+000 -8.872102e-002 1.625845e-002
    outer loop
      vertex   7.000000e+000 5.148906e+001 1.056919e+001
      vertex   9.000000e+000 5.145641e+001 1.039103e+001
      vertex   9.000000e+000 5.148906e+001 1.056919e+001
    endloop
  endfacet
  facet normal 0.000000e+000 -9.981756e-001 6.037870e-002
    outer loop
      vertex   7.000000e+000 5.148906e+001 1.056919e+001
      vertex   9.000000e+000 5.148906e+001 1.056919e+001
      vertex   7.000000e+000 5.150000e+001 1.075000e+001
    endloop
  endfacet
  facet normal 0.000000e+000 -9.003410e-002 5.446078e-003
    outer loop
      vertex   7.000000e+000 5.150000e+001 1.075000e+001
      vertex   9.000000e+000 5.148906e+001 1.056919e+001
      vertex   9.000000e+000 5.150000e+001 1.075000e+001
    endloop
  endfacet
  facet normal 0.000000e+000 -9.981756e-001 -6.037870e-002
    outer loop
      vertex   7.000000e+000 5.150000e+001 1.075000e+001
      vertex   9.000000e+000 5.150000e+001 1.075000e+001
      vertex   7.000000e+000 5.148906e+001 1.093081e+001
    endloop
  endfacet
  facet normal 0.000000e+000 -9.003410e-002 -5.446078e-003
    outer loop
      vertex   7.000000e+000 5.148906e+001 1.093081e+001
      vertex   9.000000e+000 5.150000e+001 1.075000e+001
      vertex   9.000000e+000 5.148906e+001 1.093081e+001
    endloop
  endfacet
  facet normal 0.000000e+000 -9.836205e-001 -1.802521e-001
    outer loop
      vertex   7.000000e+000 5.148906e+001 1.093081e+001
      vertex   9.000000e+000 5.148906e+001 1.093081e+001
      vertex   7.000000e+000 5.145641e+001 1.110897e+001
    endloop
  endfacet
  facet normal 0.000000e+000 -8.872102e-002 -1.625845e-002
    outer loop
      vertex   7.000000e+000 5.145641e+001 1.110897e+001
      vertex   9.000000e+000 5.148906e+001 1.093081e+001
      vertex   9.000000e+000 5.145641e+001 1.110897e+001
    endloop
  endfacet
  facet normal 0.000000e+000 -9.547178e-001 -2.975129e-001
    outer loop
      vertex   7.000000e+000 5.145641e+001 1.110897e+001
      vertex   9.000000e+000 5.145641e+001 1.110897e+001
      vertex   7.000000e+000 5.140252e+001 1.128191e+001
    endloop
  endfacet
  facet normal 0.000000e+000 -8.611433e-002 -2.683528e-002
    outer loop
      vertex   7.000000e+000 5.140252e+001 1.128191e+001
      vertex   9.000000e+000 5.145641e+001 1.110897e+001
      vertex   9.000000e+000 5.140252e+001 1.128191e+001
    endloop
  endfacet
  facet normal 0.000000e+000 -9.118987e-001 -4.104152e-001
    outer loop
      vertex   7.000000e+000 5.140252e+001 1.128191e+001
      vertex   9.000000e+000 5.140252e+001 1.128191e+001
      vertex   7.000000e+000 5.132818e+001 1.144708e+001
    endloop
  endfacet
  facet normal 0.000000e+000 -8.225203e-002 -3.701890e-002
    outer loop
      vertex   7.000000e+000 5.132818e+001 1.144708e+001
      vertex   9.000000e+000 5.140252e+001 1.128191e+001
      vertex   9.000000e+000 5.132818e+001 1.144708e+001
    endloop
  endfacet
  facet normal 0.000000e+000 -8.557828e-001 -5.173352e-001
    outer loop
      vertex   7.000000e+000 5.132818e+001 1.144708e+001
      vertex   9.000000e+000 5.132818e+001 1.144708e+001
      vertex   7.000000e+000 5.123447e+001 1.160210e+001
    endloop
  endfacet
  facet normal 0.000000e+000 -7.719061e-002 -4.666303e-002
    outer loop
      vertex   7.000000e+000 5.123447e+001 1.160210e+001
      vertex   9.000000e+000 5.132818e+001 1.144708e+001
      vertex   9.000000e+000 5.123447e+001 1.160210e+001
    endloop
  endfacet
  facet normal 0.000000e+000 -7.871833e-001 -6.167190e-001
    outer loop
      vertex   7.000000e+000 5.123447e+001 1.160210e+001
      vertex   9.000000e+000 5.123447e+001 1.160210e+001
      vertex   7.000000e+000 5.112276e+001 1.174468e+001
    endloop
  endfacet
  facet normal 0.000000e+000 -7.100275e-002 -5.562712e-002
    outer loop
      vertex   7.000000e+000 5.112276e+001 1.174468e+001
      vertex   9.000000e+000 5.123447e+001 1.160210e+001
      vertex   9.000000e+000 5.112276e+001 1.174468e+001
    endloop
  endfacet
  facet normal 0.000000e+000 -7.071068e-001 -7.071068e-001
    outer loop
      vertex   7.000000e+000 5.112276e+001 1.174468e+001
      vertex   9.000000e+000 5.112276e+001 1.174468e+001
      vertex   7.000000e+000 5.099468e+001 1.187277e+001
    endloop
  endfacet
  facet normal 0.000000e+000 -6.378009e-002 -6.378009e-002
    outer loop
      vertex   7.000000e+000 5.099468e+001 1.187277e+001
      vertex   9.000000e+000 5.112276e+001 1.174468e+001
      vertex   9.000000e+000 5.099468e+001 1.187277e+001
    endloop
  endfacet
  facet normal 0.000000e+000 -6.167216e-001 -7.871814e-001
    outer loop
      vertex   7.000000e+000 5.099468e+001 1.187277e+001
      vertex   9.000000e+000 5.099468e+001 1.187277e+001
      vertex   7.000000e+000 5.085210e+001 1.198448e+001
    endloop
  endfacet
  facet normal 0.000000e+000 -5.562713e-002 -7.100227e-002
    outer loop
      vertex   7.000000e+000 5.085210e+001 1.198448e+001
      vertex   9.000000e+000 5.099468e+001 1.187277e+001
      vertex   9.000000e+000 5.085210e+001 1.198448e+001
    endloop
  endfacet
  facet normal 0.000000e+000 -5.173422e-001 -8.557786e-001
    outer loop
      vertex   7.000000e+000 5.085210e+001 1.198448e+001
      vertex   9.000000e+000 5.085210e+001 1.198448e+001
      vertex   7.000000e+000 5.069709e+001 1.207818e+001
    endloop
  endfacet
  facet normal 0.000000e+000 -4.666304e-002 -7.718919e-002
    outer loop
      vertex   7.000000e+000 5.069709e+001 1.207818e+001
      vertex   9.000000e+000 5.085210e+001 1.198448e+001
      vertex   9.000000e+000 5.069709e+001 1.207818e+001
    endloop
  endfacet
  facet normal 0.000000e+000 -4.104050e-001 -9.119034e-001
    outer loop
      vertex   7.000000e+000 5.069709e+001 1.207818e+001
      vertex   9.000000e+000 5.069709e+001 1.207818e+001
      vertex   7.000000e+000 5.053191e+001 1.215252e+001
    endloop
  endfacet
  facet normal 0.000000e+000 -3.701842e-002 -8.225344e-002
    outer loop
      vertex   7.000000e+000 5.053191e+001 1.215252e+001
      vertex   9.000000e+000 5.069709e+001 1.207818e+001
      vertex   9.000000e+000 5.053191e+001 1.215252e+001
    endloop
  endfacet
  facet normal 0.000000e+000 -2.975062e-001 -9.547199e-001
    outer loop
      vertex   7.000000e+000 5.053191e+001 1.215252e+001
      vertex   9.000000e+000 5.053191e+001 1.215252e+001
      vertex   7.000000e+000 5.035897e+001 1.220641e+001
    endloop
  endfacet
  facet normal 0.000000e+000 -2.683433e-002 -8.611339e-002
    outer loop
      vertex   7.000000e+000 5.035897e+001 1.220641e+001
      vertex   9.000000e+000 5.053191e+001 1.215252e+001
      vertex   9.000000e+000 5.035897e+001 1.220641e+001
    endloop
  endfacet
  facet normal 0.000000e+000 -1.802562e-001 -9.836197e-001
    outer loop
      vertex   7.000000e+000 5.035897e+001 1.220641e+001
      vertex   9.000000e+000 5.035897e+001 1.220641e+001
      vertex   7.000000e+000 5.018081e+001 1.223906e+001
    endloop
  endfacet
  facet normal 0.000000e+000 -1.625893e-002 -8.872150e-002
    outer loop
      vertex   7.000000e+000 5.018081e+001 1.223906e+001
      vertex   9.000000e+000 5.035897e+001 1.220641e+001
      vertex   9.000000e+000 5.018081e+001 1.223906e+001
    endloop
  endfacet
  facet normal 0.000000e+000 -6.037870e-002 -9.981756e-001
    outer loop
      vertex   7.000000e+000 5.018081e+001 1.223906e+001
      vertex   9.000000e+000 5.018081e+001 1.223906e+001
      vertex   7.000000e+000 5.000000e+001 1.225000e+001
    endloop
  endfacet
  facet normal 0.000000e+000 -5.446078e-003 -9.003410e-002
    outer loop
      vertex   7.000000e+000 5.000000e+001 1.225000e+001
      vertex   9.000000e+000 5.018081e+001 1.223906e+001
      vertex   9.000000e+000 5.000000e+001 1.225000e+001
    endloop
  endfacet
  facet normal 0.000000e+000 6.037870e-002 -9.981756e-001
    outer loop
      vertex   7.000000e+000 5.000000e+001 1.225000e+001
      vertex   9.000000e+000 5.000000e+001 1.225000e+001
      vertex   7.000000e+000 4.981919e+001 1.223906e+001
    endloop
  endfacet
  facet normal 0.000000e+000 5.446078e-003 -9.003410e-002
    outer loop
      vertex   7.000000e+000 4.981919e+001 1.223906e+001
      vertex   9.000000e+000 5.000000e+001 1.225000e+001
      vertex   9.000000e+000 4.981919e+001 1.223906e+001
    endloop
  endfacet
  facet normal 0.000000e+000 1.802562e-001 -9.836197e-001
    outer loop
      vertex   7.000000e+000 4.981919e+001 1.223906e+001
      vertex   9.000000e+000 4.981919e+001 1.223906e+001
      vertex   7.000000e+000 4.964103e+001 1.220641e+001
    endloop
  endfacet
  facet normal 0.000000e+000 1.625893e-002 -8.872150e-002
    outer loop
      vertex   7.000000e+000 4.964103e+001 1.220641e+001
      vertex   9.000000e+000 4.981919e+001 1.223906e+001
      vertex   9.000000e+000 4.964103e+001 1.220641e+001
    endloop
  endfacet
  facet normal 0.000000e+000 2.975062e-001 -9.547199e-001
    outer loop
      vertex   7.000000e+000 4.964103e+001 1.220641e+001
      vertex   9.000000e+000 4.964103e+001 1.220641e+001
      vertex   7.000000e+000 4.946809e+001 1.215252e+001
    endloop
  endfacet
  facet normal 0.000000e+000 2.683433e-002 -8.611339e-002
    outer loop
      vertex   7.000000e+000 4.946809e+001 1.215252e+001
      vertex   9.000000e+000 4.964103e+001 1.220641e+001
      vertex   9.000000e+000 4.946809e+001 1.215252e+001
    endloop
  endfacet
  facet normal 0.000000e+000 4.104050e-001 -9.119034e-001
    outer loop
      vertex   7.000000e+000 4.946809e+001 1.215252e+001
      vertex   9.000000e+000 4.946809e+001 1.215252e+001
      vertex   7.000000e+000 4.930291e+001 1.207818e+001
    endloop
  endfacet
  facet normal 0.000000e+000 3.701842e-002 -8.225344e-002
    outer loop
      vertex   7.000000e+000 4.930291e+001 1.207818e+001
      vertex   9.000000e+000 4.946809e+001 1.215252e+001
      vertex   9.000000e+000 4.930291e+001 1.207818e+001
    endloop
  endfacet
  facet normal 0.000000e+000 5.173422e-001 -8.557786e-001
    outer loop
      vertex   7.000000e+000 4.930291e+001 1.207818e+001
      vertex   9.000000e+000 4.930291e+001 1.207818e+001
      vertex   7.000000e+000 4.914790e+001 1.198448e+001
    endloop
  endfacet
  facet normal 0.000000e+000 4.666304e-002 -7.718919e-002
    outer loop
      vertex   7.000000e+000 4.914790e+001 1.198448e+001
      vertex   9.000000e+000 4.930291e+001 1.207818e+001
      vertex   9.000000e+000 4.914790e+001 1.198448e+001
    endloop
  endfacet
  facet normal 0.000000e+000 6.167216e-001 -7.871814e-001
    outer loop
      vertex   7.000000e+000 4.914790e+001 1.198448e+001
      vertex   9.000000e+000 4.914790e+001 1.198448e+001
      vertex   7.000000e+000 4.900532e+001 1.187277e+001
    endloop
  endfacet
  facet normal 0.000000e+000 5.562713e-002 -7.100227e-002
    outer loop
      vertex   7.000000e+000 4.900532e+001 1.187277e+001
      vertex   9.000000e+000 4.914790e+001 1.198448e+001
      vertex   9.000000e+000 4.900532e+001 1.187277e+001
    endloop
  endfacet
  facet normal 0.000000e+000 7.071068e-001 -7.071068e-001
    outer loop
      vertex   7.000000e+000 4.900532e+001 1.187277e+001
      vertex   9.000000e+000 4.900532e+001 1.187277e+001
      vertex   7.000000e+000 4.887724e+001 1.174468e+001
    endloop
  endfacet
  facet normal 0.000000e+000 6.378009e-002 -6.378009e-002
    outer loop
      vertex   7.000000e+000 4.887724e+001 1.174468e+001
      vertex   9.000000e+000 4.900532e+001 1.187277e+001
      vertex   9.000000e+000 4.887724e+001 1.174468e+001
    endloop
  endfacet
  facet normal 0.000000e+000 7.871833e-001 -6.167190e-001
    outer loop
      vertex   7.000000e+000 4.887724e+001 1.174468e+001
      vertex   9.000000e+000 4.887724e+001 1.174468e+001
      vertex   7.000000e+000 4.876553e+001 1.160210e+001
    endloop
  endfacet
  facet normal 0.000000e+000 7.100275e-002 -5.562712e-002
    outer loop
      vertex   7.000000e+000 4.876553e+001 1.160210e+001
      vertex   9.000000e+000 4.887724e+001 1.174468e+001
      vertex   9.000000e+000 4.876553e+001 1.160210e+001
    endloop
  endfacet
  facet normal 0.000000e+000 8.557828e-001 -5.173352e-001
    outer loop
      vertex   7.000000e+000 4.876553e+001 1.160210e+001
      vertex   9.000000e+000 4.876553e+001 1.160210e+001
      vertex   7.000000e+000 4.867182e+001 1.144708e+001
    endloop
  endfacet
  facet normal 0.000000e+000 7.719061e-002 -4.666303e-002
    outer loop
      vertex   7.000000e+000 4.867182e+001 1.144708e+001
      vertex   9.000000e+000 4.876553e+001 1.160210e+001
      vertex   9.000000e+000 4.867182e+001 1.144708e+001
    endloop
  endfacet
  facet normal 0.000000e+000 9.118987e-001 -4.104152e-001
    outer loop
      vertex   7.000000e+000 4.867182e+001 1.144708e+001
      vertex   9.000000e+000 4.867182e+001 1.144708e+001
      vertex   7.000000e+000 4.859748e+001 1.128191e+001
    endloop
  endfacet
  facet normal 0.000000e+000 8.225203e-002 -3.701890e-002
    outer loop
      vertex   7.000000e+000 4.859748e+001 1.128191e+001
      vertex   9.000000e+000 4.867182e+001 1.144708e+001
      vertex   9.000000e+000 4.859748e+001 1.128191e+001
    endloop
  endfacet
  facet normal 0.000000e+000 9.547178e-001 -2.975129e-001
    outer loop
      vertex   7.000000e+000 4.859748e+001 1.128191e+001
      vertex   9.000000e+000 4.859748e+001 1.128191e+001
      vertex   7.000000e+000 4.854359e+001 1.110897e+001
    endloop
  endfacet
  facet normal 0.000000e+000 8.611433e-002 -2.683528e-002
    outer loop
      vertex   7.000000e+000 4.854359e+001 1.110897e+001
      vertex   9.000000e+000 4.859748e+001 1.128191e+001
      vertex   9.000000e+000 4.854359e+001 1.110897e+001
    endloop
  endfacet
  facet normal 0.000000e+000 9.836205e-001 -1.802521e-001
    outer loop
      vertex   7.000000e+000 4.854359e+001 1.110897e+001
      vertex   9.000000e+000 4.854359e+001 1.110897e+001
      vertex   7.000000e+000 4.851094e+001 1.093081e+001
    endloop
  endfacet
  facet normal 0.000000e+000 8.872102e-002 -1.625845e-002
    outer loop
      vertex   7.000000e+000 4.851094e+001 1.093081e+001
      vertex   9.000000e+000 4.854359e+001 1.110897e+001
      vertex   9.000000e+000 4.851094e+001 1.093081e+001
    endloop
  endfacet
  facet normal 0.000000e+000 9.981756e-001 -6.037870e-002
    outer loop
      vertex   7.000000e+000 4.851094e+001 1.093081e+001
      vertex   9.000000e+000 4.851094e+001 1.093081e+001
      vertex   7.000000e+000 4.850000e+001 1.075000e+001
    endloop
  endfacet
  facet normal 0.000000e+000 9.003410e-002 -5.446078e-003
    outer loop
      vertex   7.000000e+000 4.850000e+001 1.075000e+001
      vertex   9.000000e+000 4.851094e+001 1.093081e+001
      vertex   9.000000e+000 4.850000e+001 1.075000e+001
    endloop
  endfacet
  facet normal -0.000000e+000 9.981756e-001 6.037870e-002
    outer loop
      vertex   7.000000e+000 4.850000e+001 1.075000e+001
      vertex   9.000000e+000 4.850000e+001 1.075000e+001
      vertex   7.000000e+000 4.851094e+001 1.056919e+001
    endloop
  endfacet
  facet normal -0.000000e+000 9.003410e-002 5.446078e-003
    outer loop
      vertex   7.000000e+000 4.851094e+001 1.056919e+001
      vertex   9.000000e+000 4.850000e+001 1.075000e+001
      vertex   9.000000e+000 4.851094e+001 1.056919e+001
    endloop
  endfacet
  facet normal -0.000000e+000 9.836205e-001 1.802521e-001
    outer loop
      vertex   7.000000e+000 4.851094e+001 1.056919e+001
      vertex   9.000000e+000 4.851094e+001 1.056919e+001
      vertex   7.000000e+000 4.854359e+001 1.039103e+001
    endloop
  endfacet
  facet normal -0.000000e+000 8.872102e-002 1.625845e-002
    outer loop
      vertex   7.000000e+000 4.854359e+001 1.039103e+001
      vertex   9.000000e+000 4.851094e+001 1.056919e+001
      vertex   9.000000e+000 4.854359e+001 1.039103e+001
    endloop
  endfacet
  facet normal -0.000000e+000 9.547178e-001 2.975129e-001
    outer loop
      vertex   7.000000e+000 4.854359e+001 1.039103e+001
      vertex   9.000000e+000 4.854359e+001 1.039103e+001
      vertex   7.000000e+000 4.859748e+001 1.021809e+001
    endloop
  endfacet
  facet normal -0.000000e+000 8.611433e-002 2.683528e-002
    outer loop
      vertex   7.000000e+000 4.859748e+001 1.021809e+001
      vertex   9.000000e+000 4.854359e+001 1.039103e+001
      vertex   9.000000e+000 4.859748e+001 1.021809e+001
    endloop
  endfacet
  facet normal -0.000000e+000 9.118987e-001 4.104152e-001
    outer loop
      vertex   7.000000e+000 4.859748e+001 1.021809e+001
      vertex   9.000000e+000 4.859748e+001 1.021809e+001
      vertex   7.000000e+000 4.867182e+001 1.005292e+001
    endloop
  endfacet
  facet normal -0.000000e+000 8.225203e-002 3.701890e-002
    outer loop
      vertex   7.000000e+000 4.867182e+001 1.005292e+001
      vertex   9.000000e+000 4.859748e+001 1.021809e+001
      vertex   9.000000e+000 4.867182e+001 1.005292e+001
    endloop
  endfacet
  facet normal -0.000000e+000 8.557828e-001 5.173352e-001
    outer loop
      vertex   7.000000e+000 4.867182e+001 1.005292e+001
      vertex   9.000000e+000 4.867182e+001 1.005292e+001
      vertex   7.000000e+000 4.876553e+001 9.897902e+000
    endloop
  endfacet
  facet normal -0.000000e+000 7.719061e-002 4.666303e-002
    outer loop
      vertex   7.000000e+000 4.876553e+001 9.897902e+000
      vertex   9.000000e+000 4.867182e+001 1.005292e+001
      vertex   9.000000e+000 4.876553e+001 9.897902e+000
    endloop
  endfacet
  facet normal -0.000000e+000 7.871833e-001 6.167190e-001
    outer loop
      vertex   7.000000e+000 4.876553e+001 9.897902e+000
      vertex   9.000000e+000 4.876553e+001 9.897902e+000
      vertex   7.000000e+000 4.887724e+001 9.755316e+000
    endloop
  endfacet
  facet normal -0.000000e+000 7.100275e-002 5.562712e-002
    outer loop
      vertex   7.000000e+000 4.887724e+001 9.755316e+000
      vertex   9.000000e+000 4.876553e+001 9.897902e+000
      vertex   9.000000e+000 4.887724e+001 9.755316e+000
    endloop
  endfacet
  facet normal -0.000000e+000 7.071068e-001 7.071068e-001
    outer loop
      vertex   7.000000e+000 4.887724e+001 9.755316e+000
      vertex   9.000000e+000 4.887724e+001 9.755316e+000
      vertex   7.000000e+000 4.900532e+001 9.627234e+000
    endloop
  endfacet
  facet normal -0.000000e+000 6.378009e-002 6.378009e-002
    outer loop
      vertex   7.000000e+000 4.900532e+001 9.627234e+000
      vertex   9.000000e+000 4.887724e+001 9.755316e+000
      vertex   9.000000e+000 4.900532e+001 9.627234e+000
    endloop
  endfacet
  facet normal -0.000000e+000 6.167216e-001 7.871814e-001
    outer loop
      vertex   7.000000e+000 4.900532e+001 9.627234e+000
      vertex   9.000000e+000 4.900532e+001 9.627234e+000
      vertex   7.000000e+000 4.914790e+001 9.515524e+000
    endloop
  endfacet
  facet normal -0.000000e+000 5.562713e-002 7.100227e-002
    outer loop
      vertex   7.000000e+000 4.914790e+001 9.515524e+000
      vertex   9.000000e+000 4.900532e+001 9.627234e+000
      vertex   9.000000e+000 4.914790e+001 9.515524e+000
    endloop
  endfacet
  facet normal -0.000000e+000 5.173422e-001 8.557786e-001
    outer loop
      vertex   7.000000e+000 4.914790e+001 9.515524e+000
      vertex   9.000000e+000 4.914790e+001 9.515524e+000
      vertex   7.000000e+000 4.930291e+001 9.421816e+000
    endloop
  endfacet
  facet normal -0.000000e+000 4.666304e-002 7.718919e-002
    outer loop
      vertex   7.000000e+000 4.930291e+001 9.421816e+000
      vertex   9.000000e+000 4.914790e+001 9.515524e+000
      vertex   9.000000e+000 4.930291e+001 9.421816e+000
    endloop
  endfacet
  facet normal -0.000000e+000 4.104050e-001 9.119034e-001
    outer loop
      vertex   7.000000e+000 4.930291e+001 9.421816e+000
      vertex   9.000000e+000 4.930291e+001 9.421816e+000
      vertex   7.000000e+000 4.946809e+001 9.347476e+000
    endloop
  endfacet
  facet normal -0.000000e+000 3.701842e-002 8.225344e-002
    outer loop
      vertex   7.000000e+000 4.946809e+001 9.347476e+000
      vertex   9.000000e+000 4.930291e+001 9.421816e+000
      vertex   9.000000e+000 4.946809e+001 9.347476e+000
    endloop
  endfacet
  facet normal -0.000000e+000 2.975062e-001 9.547199e-001
    outer loop
      vertex   7.000000e+000 4.946809e+001 9.347476e+000
      vertex   9.000000e+000 4.946809e+001 9.347476e+000
      vertex   7.000000e+000 4.964103e+001 9.293588e+000
    endloop
  endfacet
  facet normal -0.000000e+000 2.683433e-002 8.611339e-002
    outer loop
      vertex   7.000000e+000 4.964103e+001 9.293588e+000
      vertex   9.000000e+000 4.946809e+001 9.347476e+000
      vertex   9.000000e+000 4.964103e+001 9.293588e+000
    endloop
  endfacet
  facet normal -0.000000e+000 1.802562e-001 9.836197e-001
    outer loop
      vertex   7.000000e+000 4.964103e+001 9.293588e+000
      vertex   9.000000e+000 4.964103e+001 9.293588e+000
      vertex   7.000000e+000 4.981919e+001 9.260937e+000
    endloop
  endfacet
  facet normal -0.000000e+000 1.625893e-002 8.872150e-002
    outer loop
      vertex   7.000000e+000 4.981919e+001 9.260937e+000
      vertex   9.000000e+000 4.964103e+001 9.293588e+000
      vertex   9.000000e+000 4.981919e+001 9.260937e+000
    endloop
  endfacet
  facet normal -9.981756e-001 -0.000000e+000 -0.000000e+000
    outer loop
      vertex   9.000000e+000 5.018081e+001 1.223906e+001
      vertex   9.000000e+000 5.018081e+001 9.260937e+000
      vertex   9.000000e+000 5.000000e+001 1.225000e+001
    endloop
  endfacet
  facet normal -6.037856e-002 0.000000e+000 0.000000e+000
    outer loop
      vertex   9.000000e+000 5.000000e+001 1.225000e+001
      vertex   9.000000e+000 5.018081e+001 9.260937e+000
      vertex   9.000000e+000 5.000000e+001 9.250000e+000
    endloop
  endfacet
  facet normal -9.981756e-001 0.000000e+000 -0.000000e+000
    outer loop
      vertex   9.000000e+000 5.000000e+001 1.225000e+001
      vertex   9.000000e+000 5.000000e+001 9.250000e+000
      vertex   9.000000e+000 4.981919e+001 1.223906e+001
    endloop
  endfacet
  facet normal -6.037856e-002 0.000000e+000 0.000000e+000
    outer loop
      vertex   9.000000e+000 4.981919e+001 1.223906e+001
      vertex   9.000000e+000 5.000000e+001 9.250000e+000
      vertex   9.000000e+000 4.981919e+001 9.260937e+000
    endloop
  endfacet
  facet normal -9.836197e-001 0.000000e+000 -0.000000e+000
    outer loop
      vertex   9.000000e+000 4.981919e+001 1.223906e+001
      vertex   9.000000e+000 4.981919e+001 9.260937e+000
      vertex   9.000000e+000 4.964103e+001 1.220641e+001
    endloop
  endfacet
  facet normal -6.037877e-002 0.000000e+000 0.000000e+000
    outer loop
      vertex   9.000000e+000 4.964103e+001 1.220641e+001
      vertex   9.000000e+000 4.981919e+001 9.260937e+000
      vertex   9.000000e+000 4.964103e+001 9.293588e+000
    endloop
  endfacet
  facet normal -9.547199e-001 0.000000e+000 -0.000000e+000
    outer loop
      vertex   9.000000e+000 4.964103e+001 1.220641e+001
      vertex   9.000000e+000 4.964103e+001 9.293588e+000
      vertex   9.000000e+000 4.946809e+001 1.215252e+001
    endloop
  endfacet
  facet normal -6.037776e-002 0.000000e+000 0.000000e+000
    outer loop
      vertex   9.000000e+000 4.946809e+001 1.215252e+001
      vertex   9.000000e+000 4.964103e+001 9.293588e+000
      vertex   9.000000e+000 4.946809e+001 9.347476e+000
    endloop
  endfacet
  facet normal -9.119034e-001 0.000000e+000 -0.000000e+000
    outer loop
      vertex   9.000000e+000 4.946809e+001 1.215252e+001
      vertex   9.000000e+000 4.946809e+001 9.347476e+000
      vertex   9.000000e+000 4.930291e+001 1.207818e+001
    endloop
  endfacet
  facet normal -6.037952e-002 0.000000e+000 0.000000e+000
    outer loop
      vertex   9.000000e+000 4.930291e+001 1.207818e+001
      vertex   9.000000e+000 4.946809e+001 9.347476e+000
      vertex   9.000000e+000 4.930291e+001 9.421816e+000
    endloop
  endfacet
  facet normal -8.557786e-001 0.000000e+000 -0.000000e+000
    outer loop
      vertex   9.000000e+000 4.930291e+001 1.207818e+001
      vertex   9.000000e+000 4.930291e+001 9.421816e+000
      vertex   9.000000e+000 4.914790e+001 1.198448e+001
    endloop
  endfacet
  facet normal -6.037766e-002 0.000000e+000 0.000000e+000
    outer loop
      vertex   9.000000e+000 4.914790e+001 1.198448e+001
      vertex   9.000000e+000 4.930291e+001 9.421816e+000
      vertex   9.000000e+000 4.914790e+001 9.515524e+000
    endloop
  endfacet
  facet normal -7.871814e-001 0.000000e+000 -0.000000e+000
    outer loop
      vertex   9.000000e+000 4.914790e+001 1.198448e+001
      vertex   9.000000e+000 4.914790e+001 9.515524e+000
      vertex   9.000000e+000 4.900532e+001 1.187277e+001
    endloop
  endfacet
  facet normal -6.037801e-002 0.000000e+000 0.000000e+000
    outer loop
      vertex   9.000000e+000 4.900532e+001 1.187277e+001
      vertex   9.000000e+000 4.914790e+001 9.515524e+000
      vertex   9.000000e+000 4.900532e+001 9.627234e+000
    endloop
  endfacet
  facet normal -7.071068e-001 0.000000e+000 -0.000000e+000
    outer loop
      vertex   9.000000e+000 4.900532e+001 1.187277e+001
      vertex   9.000000e+000 4.900532e+001 9.627234e+000
      vertex   9.000000e+000 4.887724e+001 1.174468e+001
    endloop
  endfacet
  facet normal -6.037855e-002 0.000000e+000 0.000000e+000
    outer loop
      vertex   9.000000e+000 4.887724e+001 1.174468e+001
      vertex   9.000000e+000 4.900532e+001 9.627234e+000
      vertex   9.000000e+000 4.887724e+001 9.755316e+000
    endloop
  endfacet
  facet normal -6.167190e-001 0.000000e+000 -0.000000e+000
    outer loop
      vertex   9.000000e+000 4.887724e+001 1.174468e+001
      vertex   9.000000e+000 4.887724e+001 9.755316e+000
      vertex   9.000000e+000 4.876553e+001 1.160210e+001
    endloop
  endfacet
  facet normal -6.037843e-002 0.000000e+000 0.000000e+000
    outer loop
      vertex   9.000000e+000 4.876553e+001 1.160210e+001
      vertex   9.000000e+000 4.887724e+001 9.755316e+000
      vertex   9.000000e+000 4.876553e+001 9.897902e+000
    endloop
  endfacet
  facet normal -5.173352e-001 0.000000e+000 -0.000000e+000
    outer loop
      vertex   9.000000e+000 4.876553e+001 1.160210e+001
      vertex   9.000000e+000 4.876553e+001 9.897902e+000
      vertex   9.000000e+000 4.867182e+001 1.144708e+001
    endloop
  endfacet
  facet normal -6.037837e-002 0.000000e+000 0.000000e+000
    outer loop
      vertex   9.000000e+000 4.867182e+001 1.144708e+001
      vertex   9.000000e+000 4.876553e+001 9.897902e+000
      vertex   9.000000e+000 4.867182e+001 1.005292e+001
    endloop
  endfacet
  facet normal -4.104152e-001 0.000000e+000 -0.000000e+000
    outer loop
      vertex   9.000000e+000 4.867182e+001 1.144708e+001
      vertex   9.000000e+000 4.867182e+001 1.005292e+001
      vertex   9.000000e+000 4.859748e+001 1.128191e+001
    endloop
  endfacet
  facet normal -6.037893e-002 0.000000e+000 0.000000e+000
    outer loop
      vertex   9.000000e+000 4.859748e+001 1.128191e+001
      vertex   9.000000e+000 4.867182e+001 1.005292e+001
      vertex   9.000000e+000 4.859748e+001 1.021809e+001
    endloop
  endfacet
  facet normal -2.975129e-001 0.000000e+000 -0.000000e+000
    outer loop
      vertex   9.000000e+000 4.859748e+001 1.128191e+001
      vertex   9.000000e+000 4.859748e+001 1.021809e+001
      vertex   9.000000e+000 4.854359e+001 1.110897e+001
    endloop
  endfacet
  facet normal -6.038060e-002 0.000000e+000 0.000000e+000
    outer loop
      vertex   9.000000e+000 4.854359e+001 1.110897e+001
      vertex   9.000000e+000 4.859748e+001 1.021809e+001
      vertex   9.000000e+000 4.854359e+001 1.039103e+001
    endloop
  endfacet
  facet normal -1.802521e-001 0.000000e+000 -0.000000e+000
    outer loop
      vertex   9.000000e+000 4.854359e+001 1.110897e+001
      vertex   9.000000e+000 4.854359e+001 1.039103e+001
      vertex   9.000000e+000 4.851094e+001 1.093081e+001
    endloop
  endfacet
  facet normal -6.037739e-002 0.000000e+000 0.000000e+000
    outer loop
      vertex   9.000000e+000 4.851094e+001 1.093081e+001
      vertex   9.000000e+000 4.854359e+001 1.039103e+001
      vertex   9.000000e+000 4.851094e+001 1.056919e+001
    endloop
  endfacet
  facet normal -6.037870e-002 0.000000e+000 -0.000000e+000
    outer loop
      vertex   9.000000e+000 4.851094e+001 1.093081e+001
      vertex   9.000000e+000 4.851094e+001 1.056919e+001
      vertex   9.000000e+000 4.850000e+001 1.075000e+001
    endloop
  endfacet
  facet normal -9.836197e-001 0.000000e+000 0.000000e+000
    outer loop
      vertex   9.000000e+000 5.018081e+001 9.260937e+000
      vertex   9.000000e+000 5.018081e+001 1.223906e+001
      vertex   9.000000e+000 5.035897e+001 9.293588e+000
    endloop
  endfacet
  facet normal -6.037877e-002 0.000000e+000 0.000000e+000
    outer loop
      vertex   9.000000e+000 5.035897e+001 9.293588e+000
      vertex   9.000000e+000 5.018081e+001 1.223906e+001
      vertex   9.000000e+000 5.035897e+001 1.220641e+001
    endloop
  endfacet
  facet normal -9.547199e-001 0.000000e+000 0.000000e+000
    outer loop
      vertex   9.000000e+000 5.035897e+001 9.293588e+000
      vertex   9.000000e+000 5.035897e+001 1.220641e+001
      vertex   9.000000e+000 5.053191e+001 9.347476e+000
    endloop
  endfacet
  facet normal -6.037776e-002 0.000000e+000 0.000000e+000
    outer loop
      vertex   9.000000e+000 5.053191e+001 9.347476e+000
      vertex   9.000000e+000 5.035897e+001 1.220641e+001
      vertex   9.000000e+000 5.053191e+001 1.215252e+001
    endloop
  endfacet
  facet normal -9.119034e-001 0.000000e+000 0.000000e+000
    outer loop
      vertex   9.000000e+000 5.053191e+001 9.347476e+000
      vertex   9.000000e+000 5.053191e+001 1.215252e+001
      vertex   9.000000e+000 5.069709e+001 9.421816e+000
    endloop
  endfacet
  facet normal -6.037952e-002 0.000000e+000 0.000000e+000
    outer loop
      vertex   9.000000e+000 5.069709e+001 9.421816e+000
      vertex   9.000000e+000 5.053191e+001 1.215252e+001
      vertex   9.000000e+000 5.069709e+001 1.207818e+001
    endloop
  endfacet
  facet normal -8.557786e-001 0.000000e+000 0.000000e+000
    outer loop
      vertex   9.000000e+000 5.069709e+001 9.421816e+000
      vertex   9.000000e+000 5.069709e+001 1.207818e+001
      vertex   9.000000e+000 5.085210e+001 9.515524e+000
    endloop
  endfacet
  facet normal -6.037766e-002 0.000000e+000 0.000000e+000
    outer loop
      vertex   9.000000e+000 5.085210e+001 9.515524e+000
      vertex   9.000000e+000 5.069709e+001 1.207818e+001
      vertex   9.000000e+000 5.085210e+001 1.198448e+001
    endloop
  endfacet
  facet normal -7.871814e-001 0.000000e+000 0.000000e+000
    outer loop
      vertex   9.000000e+000 5.085210e+001 9.515524e+000
      vertex   9.000000e+000 5.085210e+001 1.198448e+001
      vertex   9.000000e+000 5.099468e+001 9.627234e+000
    endloop
  endfacet
  facet normal -6.037801e-002 0.000000e+000 0.000000e+000
    outer loop
      vertex   9.000000e+000 5.099468e+001 9.627234e+000
      vertex   9.000000e+000 5.085210e+001 1.198448e+001
      vertex   9.000000e+000 5.099468e+001 1.187277e+001
    endloop
  endfacet
  facet normal -7.071068e-001 0.000000e+000 0.000000e+000
    outer loop
      vertex   9.000000e+000 5.099468e+001 9.627234e+000
      vertex   9.000000e+000 5.099468e+001 1.187277e+001
      vertex   9.000000e+000 5.112276e+001 9.755316e+000
    endloop
  endfacet
  facet normal -6.037855e-002 0.000000e+000 0.000000e+000
    outer loop
      vertex   9.000000e+000 5.112276e+001 9.755316e+000
      vertex   9.000000e+000 5.099468e+001 1.187277e+001
      vertex   9.000000e+000 5.112276e+001 1.174468e+001
    endloop
  endfacet
  facet normal -6.167190e-001 0.000000e+000 0.000000e+000
    outer loop
      vertex   9.000000e+000 5.112276e+001 9.755316e+000
      vertex   9.000000e+000 5.112276e+001 1.174468e+001
      vertex   9.000000e+000 5.123447e+001 9.897902e+000
    endloop
  endfacet
  facet normal -6.037843e-002 0.000000e+000 0.000000e+000
    outer loop
      vertex   9.000000e+000 5.123447e+001 9.897902e+000
      vertex   9.000000e+000 5.112276e+001 1.174468e+001
      vertex   9.000000e+000 5.123447e+001 1.160210e+001
    endloop
  endfacet
  facet normal -5.173352e-001 0.000000e+000 0.000000e+000
    outer loop
      vertex   9.000000e+000 5.123447e+001 9.897902e+000
      vertex   9.000000e+000 5.123447e+001 1.160210e+001
      vertex   9.000000e+000 5.132818e+001 1.005292e+001
    endloop
  endfacet
  facet normal -6.037837e-002 0.000000e+000 0.000000e+000
    outer loop
      vertex   9.000000e+000 5.132818e+001 1.005292e+001
      vertex   9.000000e+000 5.123447e+001 1.160210e+001
      vertex   9.000000e+000 5.132818e+001 1.144708e+001
    endloop
  endfacet
  facet normal -4.104152e-001 0.000000e+000 0.000000e+000
    outer loop
      vertex   9.000000e+000 5.132818e+001 1.005292e+001
      vertex   9.000000e+000 5.132818e+001 1.144708e+001
      vertex   9.000000e+000 5.140252e+001 1.021809e+001
    endloop
  endfacet
  facet normal -6.037893e-002 0.000000e+000 0.000000e+000
    outer loop
      vertex   9.000000e+000 5.140252e+001 1.021809e+001
      vertex   9.000000e+000 5.132818e+001 1.144708e+001
      vertex   9.000000e+000 5.140252e+001 1.128191e+001
    endloop
  endfacet
  facet normal -2.975129e-001 0.000000e+000 0.000000e+000
    outer loop
      vertex   9.000000e+000 5.140252e+001 1.021809e+001
      vertex   9.000000e+000 5.140252e+001 1.128191e+001
      vertex   9.000000e+000 5.145641e+001 1.039103e+001
    endloop
  endfacet
  facet normal -6.038060e-002 0.000000e+000 0.000000e+000
    outer loop
      vertex   9.000000e+000 5.145641e+001 1.039103e+001
      vertex   9.000000e+000 5.140252e+001 1.128191e+001
      vertex   9.000000e+000 5.145641e+001 1.110897e+001
    endloop
  endfacet
  facet normal -1.802521e-001 0.000000e+000 0.000000e+000
    outer loop
      vertex   9.000000e+000 5.145641e+001 1.039103e+001
      vertex   9.000000e+000 5.145641e+001 1.110897e+001
      vertex   9.000000e+000 5.148906e+001 1.056919e+001
    endloop
  endfacet
  facet normal -6.037739e-002 0.000000e+000 0.000000e+000
    outer loop
      vertex   9.000000e+000 5.148906e+001 1.056919e+001
      vertex   9.000000e+000 5.145641e+001 1.110897e+001
      vertex   9.000000e+000 5.148906e+001 1.093081e+001
    endloop
  endfacet
  facet normal -6.037870e-002 0.000000e+000 0.000000e+000
    outer loop
      vertex   9.000000e+000 5.148906e+001 1.056919e+001
      vertex   9.000000e+000 5.148906e+001 1.093081e+001
      vertex   9.000000e+000 5.150000e+001 1.075000e+001
    endloop
  endfacet
  facet normal -7.071068e-001 -0.000000e+000 -7.071068e-001
    outer loop
      vertex   3.746937e+000 5.800000e+001 1.900000e+001
      vertex   4.746937e+000 5.800000e+001 1.800000e+001
      vertex   3.746937e+000 4.200000e+001 1.900000e+001
    endloop
  endfacet
  facet normal -7.043607e-001 0.000000e+000 -7.043607e-001
    outer loop
      vertex   3.746937e+000 4.200000e+001 1.900000e+001
      vertex   4.746937e+000 5.800000e+001 1.800000e+001
      vertex   4.746937e+000 4.200000e+001 1.800000e+001
    endloop
  endfacet
  facet normal 0.000000e+000 0.000000e+000 -1.000000e+000
    outer loop
      vertex   3.746937e+000 4.200000e+001 1.900000e+001
      vertex   -1.525306e+001 4.200000e+001 1.900000e+001
      vertex   3.746937e+000 5.800000e+001 1.900000e+001
    endloop
  endfacet
  facet normal -0.000000e+000 0.000000e+000 -6.441358e-001
    outer loop
      vertex   3.746937e+000 5.800000e+001 1.900000e+001
      vertex   -1.525306e+001 4.200000e+001 1.900000e+001
      vertex   -1.525306e+001 5.800000e+001 1.900000e+001
    endloop
  endfacet
  facet normal -1.000000e+000 0.000000e+000 0.000000e+000
    outer loop
      vertex   -1.525306e+001 4.200000e+001 1.900000e+001
      vertex   -1.525306e+001 4.200000e+001 2.100000e+001
      vertex   -1.525306e+001 5.800000e+001 1.900000e+001
    endloop
  endfacet
  facet normal -9.922779e-001 0.000000e+000 0.000000e+000
    outer loop
      vertex   -1.525306e+001 5.800000e+001 1.900000e+001
      vertex   -1.525306e+001 4.200000e+001 2.100000e+001
      vertex   -1.525306e+001 5.800000e+001 2.100000e+001
    endloop
  endfacet
  facet normal 0.000000e+000 0.000000e+000 1.000000e+000
    outer loop
      vertex   -1.525306e+001 4.200000e+001 2.100000e+001
      vertex   9.746937e+000 4.200000e+001 2.100000e+001
      vertex   -1.525306e+001 5.800000e+001 2.100000e+001
    endloop
  endfacet
  facet normal -0.000000e+000 0.000000e+000 5.390537e-001
    outer loop
      vertex   -1.525306e+001 5.800000e+001 2.100000e+001
      vertex   9.746937e+000 4.200000e+001 2.100000e+001
      vertex   9.746937e+000 5.800000e+001 2.100000e+001
    endloop
  endfacet
  facet normal 0.000000e+000 -1.000000e+000 0.000000e+000
    outer loop
      vertex   4.746937e+000 5.125000e+001 1.300000e+001
      vertex   7.000000e+000 5.125000e+001 1.300000e+001
      vertex   4.746937e+000 5.125000e+001 1.775000e+001
    endloop
  endfacet
  facet normal 0.000000e+000 -9.035123e-001 0.000000e+000
    outer loop
      vertex   4.746937e+000 5.125000e+001 1.775000e+001
      vertex   7.000000e+000 5.125000e+001 1.300000e+001
      vertex   7.000000e+000 5.125000e+001 1.775000e+001
    endloop
  endfacet
  facet normal 0.000000e+000 0.000000e+000 -1.000000e+000
    outer loop
      vertex   4.746937e+000 5.125000e+001 1.775000e+001
      vertex   7.000000e+000 5.125000e+001 1.775000e+001
      vertex   4.746937e+000 4.875000e+001 1.775000e+001
    endloop
  endfacet
  facet normal 0.000000e+000 0.000000e+000 -7.428414e-001
    outer loop
      vertex   4.746937e+000 4.875000e+001 1.775000e+001
      vertex   7.000000e+000 5.125000e+001 1.775000e+001
      vertex   7.000000e+000 4.875000e+001 1.775000e+001
    endloop
  endfacet
  facet normal 0.000000e+000 0.000000e+000 -1.000000e+000
    outer loop
      vertex   4.746937e+000 4.775000e+001 1.200000e+001
      vertex   7.000000e+000 4.775000e+001 1.200000e+001
      vertex   4.746937e+000 4.300000e+001 1.200000e+001
    endloop
  endfacet
  facet normal 0.000000e+000 0.000000e+000 -9.035123e-001
    outer loop
      vertex   4.746937e+000 4.300000e+001 1.200000e+001
      vertex   7.000000e+000 4.775000e+001 1.200000e+001
      vertex   7.000000e+000 4.300000e+001 1.200000e+001
    endloop
  endfacet
  facet normal -0.000000e+000 1.000000e+000 0.000000e+000
    outer loop
      vertex   4.746937e+000 4.300000e+001 1.200000e+001
      vertex   7.000000e+000 4.300000e+001 1.200000e+001
      vertex   4.746937e+000 4.300000e+001 9.500000e+000
    endloop
  endfacet
  facet normal 0.000000e+000 7.428414e-001 0.000000e+000
    outer loop
      vertex   4.746937e+000 4.300000e+001 9.500000e+000
      vertex   7.000000e+000 4.300000e+001 1.200000e+001
      vertex   7.000000e+000 4.300000e+001 9.500000e+000
    endloop
  endfacet
  facet normal 0.000000e+000 0.000000e+000 1.000000e+000
    outer loop
      vertex   4.746937e+000 5.225000e+001 9.500000e+000
      vertex   7.000000e+000 5.225000e+001 9.500000e+000
      vertex   4.746937e+000 5.700000e+001 9.500000e+000
    endloop
  endfacet
  facet normal -0.000000e+000 0.000000e+000 9.035123e-001
    outer loop
      vertex   4.746937e+000 5.700000e+001 9.500000e+000
      vertex   7.000000e+000 5.225000e+001 9.500000e+000
      vertex   7.000000e+000 5.700000e+001 9.500000e+000
    endloop
  endfacet
  facet normal 0.000000e+000 -1.000000e+000 0.000000e+000
    outer loop
      vertex   4.746937e+000 5.700000e+001 9.500000e+000
      vertex   7.000000e+000 5.700000e+001 9.500000e+000
      vertex   4.746937e+000 5.700000e+001 1.200000e+001
    endloop
  endfacet
  facet normal 0.000000e+000 -7.428414e-001 0.000000e+000
    outer loop
      vertex   4.746937e+000 5.700000e+001 1.200000e+001
      vertex   7.000000e+000 5.700000e+001 9.500000e+000
      vertex   7.000000e+000 5.700000e+001 1.200000e+001
    endloop
  endfacet
  facet normal -6.279723e-001 0.000000e+000 -0.000000e+000
    outer loop
      vertex   7.000000e+000 5.018081e+001 9.260937e+000
      vertex   7.000000e+000 5.125000e+001 8.500000e+000
      vertex   7.000000e+000 5.000000e+001 9.250000e+000
    endloop
  endfacet
  facet normal -8.823529e-001 0.000000e+000 -0.000000e+000
    outer loop
      vertex   7.000000e+000 5.000000e+001 9.250000e+000
      vertex   7.000000e+000 5.125000e+001 8.500000e+000
      vertex   7.000000e+000 4.875000e+001 8.500000e+000
    endloop
  endfacet
  facet normal -5.653314e-001 -0.000000e+000 0.000000e+000
    outer loop
      vertex   7.000000e+000 5.000000e+001 9.250000e+000
      vertex   7.000000e+000 4.875000e+001 8.500000e+000
      vertex   7.000000e+000 4.981919e+001 9.260937e+000
    endloop
  endfacet
  facet normal -7.172003e-001 -0.000000e+000 0.000000e+000
    outer loop
      vertex   7.000000e+000 4.981919e+001 9.260937e+000
      vertex   7.000000e+000 4.875000e+001 8.500000e+000
      vertex   7.000000e+000 4.964103e+001 9.293588e+000
    endloop
  endfacet
  facet normal -8.571456e-001 -0.000000e+000 0.000000e+000
    outer loop
      vertex   7.000000e+000 4.964103e+001 9.293588e+000
      vertex   7.000000e+000 4.875000e+001 8.500000e+000
      vertex   7.000000e+000 4.946809e+001 9.347476e+000
    endloop
  endfacet
  facet normal -9.610429e-001 -0.000000e+000 0.000000e+000
    outer loop
      vertex   7.000000e+000 4.946809e+001 9.347476e+000
      vertex   7.000000e+000 4.875000e+001 8.500000e+000
      vertex   7.000000e+000 4.930291e+001 9.421816e+000
    endloop
  endfacet
  facet normal -9.999940e-001 -0.000000e+000 0.000000e+000
    outer loop
      vertex   7.000000e+000 4.930291e+001 9.421816e+000
      vertex   7.000000e+000 4.875000e+001 8.500000e+000
      vertex   7.000000e+000 4.914790e+001 9.515524e+000
    endloop
  endfacet
  facet normal -9.579185e-001 -0.000000e+000 0.000000e+000
    outer loop
      vertex   7.000000e+000 4.914790e+001 9.515524e+000
      vertex   7.000000e+000 4.875000e+001 8.500000e+000
      vertex   7.000000e+000 4.900532e+001 9.627234e+000
    endloop
  endfacet
  facet normal -8.458408e-001 -0.000000e+000 0.000000e+000
    outer loop
      vertex   7.000000e+000 4.900532e+001 9.627234e+000
      vertex   7.000000e+000 4.875000e+001 8.500000e+000
      vertex   7.000000e+000 4.887724e+001 9.755316e+000
    endloop
  endfacet
  facet normal -9.480487e-001 0.000000e+000 0.000000e+000
    outer loop
      vertex   7.000000e+000 4.887724e+001 9.755316e+000
      vertex   7.000000e+000 4.875000e+001 8.500000e+000
      vertex   7.000000e+000 4.775000e+001 9.500000e+000
    endloop
  endfacet
  facet normal -9.039713e-001 -0.000000e+000 0.000000e+000
    outer loop
      vertex   7.000000e+000 4.887724e+001 9.755316e+000
      vertex   7.000000e+000 4.775000e+001 9.500000e+000
      vertex   7.000000e+000 4.876553e+001 9.897902e+000
    endloop
  endfacet
  facet normal -9.855340e-001 -0.000000e+000 0.000000e+000
    outer loop
      vertex   7.000000e+000 4.876553e+001 9.897902e+000
      vertex   7.000000e+000 4.775000e+001 9.500000e+000
      vertex   7.000000e+000 4.867182e+001 1.005292e+001
    endloop
  endfacet
  facet normal -9.931200e-001 -0.000000e+000 0.000000e+000
    outer loop
      vertex   7.000000e+000 4.867182e+001 1.005292e+001
      vertex   7.000000e+000 4.775000e+001 9.500000e+000
      vertex   7.000000e+000 4.859748e+001 1.021809e+001
    endloop
  endfacet
  facet normal -9.207274e-001 -0.000000e+000 0.000000e+000
    outer loop
      vertex   7.000000e+000 4.859748e+001 1.021809e+001
      vertex   7.000000e+000 4.775000e+001 9.500000e+000
      vertex   7.000000e+000 4.854359e+001 1.039103e+001
    endloop
  endfacet
  facet normal -7.888061e-001 -0.000000e+000 0.000000e+000
    outer loop
      vertex   7.000000e+000 4.854359e+001 1.039103e+001
      vertex   7.000000e+000 4.775000e+001 9.500000e+000
      vertex   7.000000e+000 4.851094e+001 1.056919e+001
    endloop
  endfacet
  facet normal -6.279723e-001 -0.000000e+000 0.000000e+000
    outer loop
      vertex   7.000000e+000 4.851094e+001 1.056919e+001
      vertex   7.000000e+000 4.775000e+001 9.500000e+000
      vertex   7.000000e+000 4.850000e+001 1.075000e+001
    endloop
  endfacet
  facet normal -8.823529e-001 -0.000000e+000 0.000000e+000
    outer loop
      vertex   7.000000e+000 4.850000e+001 1.075000e+001
      vertex   7.000000e+000 4.775000e+001 9.500000e+000
      vertex   7.000000e+000 4.775000e+001 1.200000e+001
    endloop
  endfacet
  facet normal -5.653314e-001 0.000000e+000 0.000000e+000
    outer loop
      vertex   7.000000e+000 4.850000e+001 1.075000e+001
      vertex   7.000000e+000 4.775000e+001 1.200000e+001
      vertex   7.000000e+000 4.851094e+001 1.093081e+001
    endloop
  endfacet
  facet normal -7.171974e-001 0.000000e+000 0.000000e+000
    outer loop
      vertex   7.000000e+000 4.851094e+001 1.093081e+001
      vertex   7.000000e+000 4.775000e+001 1.200000e+001
      vertex   7.000000e+000 4.854359e+001 1.110897e+001
    endloop
  endfacet
  facet normal -8.571486e-001 0.000000e+000 0.000000e+000
    outer loop
      vertex   7.000000e+000 4.854359e+001 1.110897e+001
      vertex   7.000000e+000 4.775000e+001 1.200000e+001
      vertex   7.000000e+000 4.859748e+001 1.128191e+001
    endloop
  endfacet
  facet normal -9.610464e-001 0.000000e+000 0.000000e+000
    outer loop
      vertex   7.000000e+000 4.859748e+001 1.128191e+001
      vertex   7.000000e+000 4.775000e+001 1.200000e+001
      vertex   7.000000e+000 4.867182e+001 1.144708e+001
    endloop
  endfacet
  facet normal -9.999940e-001 0.000000e+000 0.000000e+000
    outer loop
      vertex   7.000000e+000 4.867182e+001 1.144708e+001
      vertex   7.000000e+000 4.775000e+001 1.200000e+001
      vertex   7.000000e+000 4.876553e+001 1.160210e+001
    endloop
  endfacet
  facet normal -9.579191e-001 0.000000e+000 0.000000e+000
    outer loop
      vertex   7.000000e+000 4.876553e+001 1.160210e+001
      vertex   7.000000e+000 4.775000e+001 1.200000e+001
      vertex   7.000000e+000 4.887724e+001 1.174468e+001
    endloop
  endfacet
  facet normal -9.480487e-001 0.000000e+000 0.000000e+000
    outer loop
      vertex   7.000000e+000 4.887724e+001 1.174468e+001
      vertex   7.000000e+000 4.775000e+001 1.200000e+001
      vertex   7.000000e+000 4.875000e+001 1.300000e+001
    endloop
  endfacet
  facet normal -7.748075e-001 0.000000e+000 0.000000e+000
    outer loop
      vertex   7.000000e+000 4.887724e+001 1.174468e+001
      vertex   7.000000e+000 4.875000e+001 1.300000e+001
      vertex   7.000000e+000 4.900532e+001 1.187277e+001
    endloop
  endfacet
  facet normal -9.039707e-001 0.000000e+000 0.000000e+000
    outer loop
      vertex   7.000000e+000 4.900532e+001 1.187277e+001
      vertex   7.000000e+000 4.875000e+001 1.300000e+001
      vertex   7.000000e+000 4.914790e+001 1.198448e+001
    endloop
  endfacet
  facet normal -9.855328e-001 0.000000e+000 0.000000e+000
    outer loop
      vertex   7.000000e+000 4.914790e+001 1.198448e+001
      vertex   7.000000e+000 4.875000e+001 1.300000e+001
      vertex   7.000000e+000 4.930291e+001 1.207818e+001
    endloop
  endfacet
  facet normal -9.931188e-001 0.000000e+000 0.000000e+000
    outer loop
      vertex   7.000000e+000 4.930291e+001 1.207818e+001
      vertex   7.000000e+000 4.875000e+001 1.300000e+001
      vertex   7.000000e+000 4.946809e+001 1.215252e+001
    endloop
  endfacet
  facet normal -9.207243e-001 0.000000e+000 0.000000e+000
    outer loop
      vertex   7.000000e+000 4.946809e+001 1.215252e+001
      vertex   7.000000e+000 4.875000e+001 1.300000e+001
      vertex   7.000000e+000 4.964103e+001 1.220641e+001
    endloop
  endfacet
  facet normal -7.888094e-001 0.000000e+000 0.000000e+000
    outer loop
      vertex   7.000000e+000 4.964103e+001 1.220641e+001
      vertex   7.000000e+000 4.875000e+001 1.300000e+001
      vertex   7.000000e+000 4.981919e+001 1.223906e+001
    endloop
  endfacet
  facet normal -6.279723e-001 0.000000e+000 0.000000e+000
    outer loop
      vertex   7.000000e+000 4.981919e+001 1.223906e+001
      vertex   7.000000e+000 4.875000e+001 1.300000e+001
      vertex   7.000000e+000 5.000000e+001 1.225000e+001
    endloop
  endfacet
  facet normal -8.823529e-001 0.000000e+000 0.000000e+000
    outer loop
      vertex   7.000000e+000 5.000000e+001 1.225000e+001
      vertex   7.000000e+000 4.875000e+001 1.300000e+001
      vertex   7.000000e+000 5.125000e+001 1.300000e+001
    endloop
  endfacet
  facet normal -5.653314e-001 0.000000e+000 0.000000e+000
    outer loop
      vertex   7.000000e+000 5.000000e+001 1.225000e+001
      vertex   7.000000e+000 5.125000e+001 1.300000e+001
      vertex   7.000000e+000 5.018081e+001 1.223906e+001
    endloop
  endfacet
  facet normal -7.172003e-001 0.000000e+000 0.000000e+000
    outer loop
      vertex   7.000000e+000 5.018081e+001 1.223906e+001
      vertex   7.000000e+000 5.125000e+001 1.300000e+001
      vertex   7.000000e+000 5.035897e+001 1.220641e+001
    endloop
  endfacet
  facet normal -8.571456e-001 0.000000e+000 0.000000e+000
    outer loop
      vertex   7.000000e+000 5.035897e+001 1.220641e+001
      vertex   7.000000e+000 5.125000e+001 1.300000e+001
      vertex   7.000000e+000 5.053191e+001 1.215252e+001
    endloop
  endfacet
  facet normal -9.610429e-001 0.000000e+000 0.000000e+000
    outer loop
      vertex   7.000000e+000 5.053191e+001 1.215252e+001
      vertex   7.000000e+000 5.125000e+001 1.300000e+001
      vertex   7.000000e+000 5.069709e+001 1.207818e+001
    endloop
  endfacet
  facet normal -9.999940e-001 0.000000e+000 0.000000e+000
    outer loop
      vertex   7.000000e+000 5.069709e+001 1.207818e+001
      vertex   7.000000e+000 5.125000e+001 1.300000e+001
      vertex   7.000000e+000 5.085210e+001 1.198448e+001
    endloop
  endfacet
  facet normal -9.579185e-001 0.000000e+000 0.000000e+000
    outer loop
      vertex   7.000000e+000 5.085210e+001 1.198448e+001
      vertex   7.000000e+000 5.125000e+001 1.300000e+001
      vertex   7.000000e+000 5.099468e+001 1.187277e+001
    endloop
  endfacet
  facet normal -8.458408e-001 0.000000e+000 0.000000e+000
    outer loop
      vertex   7.000000e+000 5.099468e+001 1.187277e+001
      vertex   7.000000e+000 5.125000e+001 1.300000e+001
      vertex   7.000000e+000 5.112276e+001 1.174468e+001
    endloop
  endfacet
  facet normal -9.480487e-001 0.000000e+000 0.000000e+000
    outer loop
      vertex   7.000000e+000 5.112276e+001 1.174468e+001
      vertex   7.000000e+000 5.125000e+001 1.300000e+001
      vertex   7.000000e+000 5.225000e+001 1.200000e+001
    endloop
  endfacet
  facet normal -9.039713e-001 0.000000e+000 0.000000e+000
    outer loop
      vertex   7.000000e+000 5.112276e+001 1.174468e+001
      vertex   7.000000e+000 5.225000e+001 1.200000e+001
      vertex   7.000000e+000 5.123447e+001 1.160210e+001
    endloop
  endfacet
  facet normal -9.855340e-001 0.000000e+000 0.000000e+000
    outer loop
      vertex   7.000000e+000 5.123447e+001 1.160210e+001
      vertex   7.000000e+000 5.225000e+001 1.200000e+001
      vertex   7.000000e+000 5.132818e+001 1.144708e+001
    endloop
  endfacet
  facet normal -9.931200e-001 0.000000e+000 0.000000e+000
    outer loop
      vertex   7.000000e+000 5.132818e+001 1.144708e+001
      vertex   7.000000e+000 5.225000e+001 1.200000e+001
      vertex   7.000000e+000 5.140252e+001 1.128191e+001
    endloop
  endfacet
  facet normal -9.207274e-001 0.000000e+000 0.000000e+000
    outer loop
      vertex   7.000000e+000 5.140252e+001 1.128191e+001
      vertex   7.000000e+000 5.225000e+001 1.200000e+001
      vertex   7.000000e+000 5.145641e+001 1.110897e+001
    endloop
  endfacet
  facet normal -7.888061e-001 0.000000e+000 0.000000e+000
    outer loop
      vertex   7.000000e+000 5.145641e+001 1.110897e+001
      vertex   7.000000e+000 5.225000e+001 1.200000e+001
      vertex   7.000000e+000 5.148906e+001 1.093081e+001
    endloop
  endfacet
  facet normal -6.279723e-001 0.000000e+000 0.000000e+000
    outer loop
      vertex   7.000000e+000 5.148906e+001 1.093081e+001
      vertex   7.000000e+000 5.225000e+001 1.200000e+001
      vertex   7.000000e+000 5.150000e+001 1.075000e+001
    endloop
  endfacet
  facet normal -8.823529e-001 0.000000e+000 0.000000e+000
    outer loop
      vertex   7.000000e+000 5.150000e+001 1.075000e+001
      vertex   7.000000e+000 5.225000e+001 1.200000e+001
      vertex   7.000000e+000 5.225000e+001 9.500000e+000
    endloop
  endfacet
  facet normal -5.653314e-001 0.000000e+000 -0.000000e+000
    outer loop
      vertex   7.000000e+000 5.150000e+001 1.075000e+001
      vertex   7.000000e+000 5.225000e+001 9.500000e+000
      vertex   7.000000e+000 5.148906e+001 1.056919e+001
    endloop
  endfacet
  facet normal -7.171974e-001 0.000000e+000 -0.000000e+000
    outer loop
      vertex   7.000000e+000 5.148906e+001 1.056919e+001
      vertex   7.000000e+000 5.225000e+001 9.500000e+000
      vertex   7.000000e+000 5.145641e+001 1.039103e+001
    endloop
  endfacet
  facet normal -8.571486e-001 0.000000e+000 -0.000000e+000
    outer loop
      vertex   7.000000e+000 5.145641e+001 1.039103e+001
      vertex   7.000000e+000 5.225000e+001 9.500000e+000
      vertex   7.000000e+000 5.140252e+001 1.021809e+001
    endloop
  endfacet
  facet normal -9.610464e-001 0.000000e+000 -0.000000e+000
    outer loop
      vertex   7.000000e+000 5.140252e+001 1.021809e+001
      vertex   7.000000e+000 5.225000e+001 9.500000e+000
      vertex   7.000000e+000 5.132818e+001 1.005292e+001
    endloop
  endfacet
  facet normal -9.999940e-001 0.000000e+000 -0.000000e+000
    outer loop
      vertex   7.000000e+000 5.132818e+001 1.005292e+001
      vertex   7.000000e+000 5.225000e+001 9.500000e+000
      vertex   7.000000e+000 5.123447e+001 9.897902e+000
    endloop
  endfacet
  facet normal -9.579191e-001 0.000000e+000 -0.000000e+000
    outer loop
      vertex   7.000000e+000 5.123447e+001 9.897902e+000
      vertex   7.000000e+000 5.225000e+001 9.500000e+000
      vertex   7.000000e+000 5.112276e+001 9.755316e+000
    endloop
  endfacet
  facet normal -9.480487e-001 0.000000e+000 0.000000e+000
    outer loop
      vertex   7.000000e+000 5.112276e+001 9.755316e+000
      vertex   7.000000e+000 5.225000e+001 9.500000e+000
      vertex   7.000000e+000 5.125000e+001 8.500000e+000
    endloop
  endfacet
  facet normal -7.748075e-001 0.000000e+000 -0.000000e+000
    outer loop
      vertex   7.000000e+000 5.112276e+001 9.755316e+000
      vertex   7.000000e+000 5.125000e+001 8.500000e+000
      vertex   7.000000e+000 5.099468e+001 9.627234e+000
    endloop
  endfacet
  facet normal -9.039707e-001 0.000000e+000 -0.000000e+000
    outer loop
      vertex   7.000000e+000 5.099468e+001 9.627234e+000
      vertex   7.000000e+000 5.125000e+001 8.500000e+000
      vertex   7.000000e+000 5.085210e+001 9.515524e+000
    endloop
  endfacet
  facet normal -9.855328e-001 0.000000e+000 -0.000000e+000
    outer loop
      vertex   7.000000e+000 5.085210e+001 9.515524e+000
      vertex   7.000000e+000 5.125000e+001 8.500000e+000
      vertex   7.000000e+000 5.069709e+001 9.421816e+000
    endloop
  endfacet
  facet normal -9.931188e-001 0.000000e+000 -0.000000e+000
    outer loop
      vertex   7.000000e+000 5.069709e+001 9.421816e+000
      vertex   7.000000e+000 5.125000e+001 8.500000e+000
      vertex   7.000000e+000 5.053191e+001 9.347476e+000
    endloop
  endfacet
  facet normal -9.207243e-001 0.000000e+000 -0.000000e+000
    outer loop
      vertex   7.000000e+000 5.053191e+001 9.347476e+000
      vertex   7.000000e+000 5.125000e+001 8.500000e+000
      vertex   7.000000e+000 5.035897e+001 9.293588e+000
    endloop
  endfacet
  facet normal -7.888094e-001 0.000000e+000 -0.000000e+000
    outer loop
      vertex   7.000000e+000 5.035897e+001 9.293588e+000
      vertex   7.000000e+000 5.125000e+001 8.500000e+000
      vertex   7.000000e+000 5.018081e+001 9.260937e+000
    endloop
  endfacet
  facet normal -1.000000e+000 0.000000e+000 0.000000e+000
    outer loop
      vertex   7.000000e+000 4.300000e+001 9.500000e+000
      vertex   7.000000e+000 4.300000e+001 1.200000e+001
      vertex   7.000000e+000 4.775000e+001 9.500000e+000
    endloop
  endfacet
  facet normal -8.849182e-001 0.000000e+000 0.000000e+000
    outer loop
      vertex   7.000000e+000 4.775000e+001 9.500000e+000
      vertex   7.000000e+000 4.300000e+001 1.200000e+001
      vertex   7.000000e+000 4.775000e+001 1.200000e+001
    endloop
  endfacet
  facet normal -1.000000e+000 0.000000e+000 0.000000e+000
    outer loop
      vertex   7.000000e+000 4.875000e+001 1.300000e+001
      vertex   7.000000e+000 4.875000e+001 1.775000e+001
      vertex   7.000000e+000 5.125000e+001 1.300000e+001
    endloop
  endfacet
  facet normal -4.657464e-001 0.000000e+000 0.000000e+000
    outer loop
      vertex   7.000000e+000 5.125000e+001 1.300000e+001
      vertex   7.000000e+000 4.875000e+001 1.775000e+001
      vertex   7.000000e+000 5.125000e+001 1.775000e+001
    endloop
  endfacet
  facet normal -1.000000e+000 -0.000000e+000 -0.000000e+000
    outer loop
      vertex   7.000000e+000 5.700000e+001 1.200000e+001
      vertex   7.000000e+000 5.700000e+001 9.500000e+000
      vertex   7.000000e+000 5.225000e+001 1.200000e+001
    endloop
  endfacet
  facet normal -8.849182e-001 0.000000e+000 0.000000e+000
    outer loop
      vertex   7.000000e+000 5.225000e+001 1.200000e+001
      vertex   7.000000e+000 5.700000e+001 9.500000e+000
      vertex   7.000000e+000 5.225000e+001 9.500000e+000
    endloop
  endfacet
  facet normal -1.000000e+000 0.000000e+000 0.000000e+000
    outer loop
      vertex   7.000000e+000 5.125000e+001 3.750000e+000
      vertex   7.000000e+000 4.875000e+001 3.750000e+000
      vertex   7.000000e+000 5.125000e+001 8.500000e+000
    endloop
  endfacet
  facet normal -8.849182e-001 -0.000000e+000 0.000000e+000
    outer loop
      vertex   7.000000e+000 5.125000e+001 8.500000e+000
      vertex   7.000000e+000 4.875000e+001 3.750000e+000
      vertex   7.000000e+000 4.875000e+001 8.500000e+000
    endloop
  endfacet
  facet normal -0.000000e+000 1.000000e+000 0.000000e+000
    outer loop
      vertex   4.746937e+000 4.875000e+001 8.500000e+000
      vertex   7.000000e+000 4.875000e+001 8.500000e+000
      vertex   4.746937e+000 4.875000e+001 3.750000e+000
    endloop
  endfacet
  facet normal 0.000000e+000 9.035123e-001 0.000000e+000
    outer loop
      vertex   4.746937e+000 4.875000e+001 3.750000e+000
      vertex   7.000000e+000 4.875000e+001 8.500000e+000
      vertex   7.000000e+000 4.875000e+001 3.750000e+000
    endloop
  endfacet
  facet normal 0.000000e+000 0.000000e+000 1.000000e+000
    outer loop
      vertex   4.746937e+000 4.875000e+001 3.750000e+000
      vertex   7.000000e+000 4.875000e+001 3.750000e+000
      vertex   4.746937e+000 5.125000e+001 3.750000e+000
    endloop
  endfacet
  facet normal -0.000000e+000 0.000000e+000 7.428414e-001
    outer loop
      vertex   4.746937e+000 5.125000e+001 3.750000e+000
      vertex   7.000000e+000 4.875000e+001 3.750000e+000
      vertex   7.000000e+000 5.125000e+001 3.750000e+000
    endloop
  endfacet
  facet normal 0.000000e+000 3.162278e-001 -0.000000e+000
    outer loop
      vertex   9.746937e+000 5.800000e+001 3.000000e+000
      vertex   4.746937e+000 5.800000e+001 1.800000e+001
      vertex   9.746937e+000 5.800000e+001 2.100000e+001
    endloop
  endfacet
  facet normal 0.000000e+000 2.169305e-001 0.000000e+000
    outer loop
      vertex   9.746937e+000 5.800000e+001 2.100000e+001
      vertex   4.746937e+000 5.800000e+001 1.800000e+001
      vertex   3.746937e+000 5.800000e+001 1.900000e+001
    endloop
  endfacet
  facet normal 0.000000e+000 3.162278e-001 0.000000e+000
    outer loop
      vertex   9.746937e+000 5.800000e+001 2.100000e+001
      vertex   3.746937e+000 5.800000e+001 1.900000e+001
      vertex   -1.525306e+001 5.800000e+001 2.100000e+001
    endloop
  endfacet
  facet normal 0.000000e+000 9.945055e-001 0.000000e+000
    outer loop
      vertex   -1.525306e+001 5.800000e+001 2.100000e+001
      vertex   3.746937e+000 5.800000e+001 1.900000e+001
      vertex   -1.525306e+001 5.800000e+001 1.900000e+001
    endloop
  endfacet
  facet normal 0.000000e+000 9.486833e-001 0.000000e+000
    outer loop
      vertex   9.746937e+000 5.800000e+001 3.000000e+000
      vertex   4.746937e+000 5.800000e+001 3.000000e+000
      vertex   4.746937e+000 5.800000e+001 1.800000e+001
    endloop
  endfacet
  facet normal 0.000000e+000 -1.000000e+000 0.000000e+000
    outer loop
      vertex   4.746937e+000 4.200000e+001 3.000000e+000
      vertex   9.746937e+000 4.200000e+001 3.000000e+000
      vertex   4.746937e+000 4.200000e+001 1.800000e+001
    endloop
  endfacet
  facet normal 0.000000e+000 -9.761871e-001 0.000000e+000
    outer loop
      vertex   4.746937e+000 4.200000e+001 1.800000e+001
      vertex   9.746937e+000 4.200000e+001 3.000000e+000
      vertex   9.746937e+000 4.200000e+001 2.100000e+001
    endloop
  endfacet
  facet normal 0.000000e+000 -9.701425e-001 0.000000e+000
    outer loop
      vertex   4.746937e+000 4.200000e+001 1.800000e+001
      vertex   9.746937e+000 4.200000e+001 2.100000e+001
      vertex   3.746937e+000 4.200000e+001 1.900000e+001
    endloop
  endfacet
  facet normal 0.000000e+000 -4.138030e-001 0.000000e+000
    outer loop
      vertex   3.746937e+000 4.200000e+001 1.900000e+001
      vertex   9.746937e+000 4.200000e+001 2.100000e+001
      vertex   -1.525306e+001 4.200000e+001 2.100000e+001
    endloop
  endfacet
  facet normal 0.000000e+000 -1.046848e-001 0.000000e+000
    outer loop
      vertex   3.746937e+000 4.200000e+001 1.900000e+001
      vertex   -1.525306e+001 4.200000e+001 2.100000e+001
      vertex   -1.525306e+001 4.200000e+001 1.900000e+001
    endloop
  endfacet
  facet normal 0.000000e+000 0.000000e+000 -1.000000e+000
    outer loop
      vertex   9.746937e+000 4.200000e+001 3.000000e+000
      vertex   4.746937e+000 4.200000e+001 3.000000e+000
      vertex   9.746937e+000 5.800000e+001 3.000000e+000
    endloop
  endfacet
  facet normal -0.000000e+000 0.000000e+000 -9.544800e-001
    outer loop
      vertex   9.746937e+000 5.800000e+001 3.000000e+000
      vertex   4.746937e+000 4.200000e+001 3.000000e+000
      vertex   4.746937e+000 5.800000e+001 3.000000e+000
    endloop
  endfacet
  facet normal 1.000000e+000 -0.000000e+000 0.000000e+000
    outer loop
      vertex   9.746937e+000 4.200000e+001 2.100000e+001
      vertex   9.746937e+000 4.200000e+001 3.000000e+000
      vertex   9.746937e+000 5.800000e+001 2.100000e+001
    endloop
  endfacet
  facet normal 6.643639e-001 0.000000e+000 0.000000e+000
    outer loop
      vertex   9.746937e+000 5.800000e+001 2.100000e+001
      vertex   9.746937e+000 4.200000e+001 3.000000e+000
      vertex   9.746937e+000 5.800000e+001 3.000000e+000
    endloop
  endfacet
endsolid
